HIERARCHY
ROOT Hips
{
	OFFSET -3.958830 18.904000 13.208200
	CHANNELS 6 Xposition Yposition Zposition Zrotation Yrotation Xrotation 
	JOINT LHipJoint
	{
		OFFSET 0.000000 0.000000 0.000000
		CHANNELS 3 Zrotation Yrotation Xrotation
		JOINT LeftUpLeg
		{
			OFFSET 1.800000 -1.400000 0.085000
			CHANNELS 3 Zrotation Yrotation Xrotation
			JOINT LeftLeg
			{
				OFFSET 2.215000 -6.000000 0.000000
				CHANNELS 3 Zrotation Yrotation Xrotation
				JOINT LeftFoot
				{
					OFFSET 2.500000 -6.900000 0.000000
					CHANNELS 3 Zrotation Yrotation Xrotation
					JOINT LeftToeBase
					{
						OFFSET 0.200000 -0.500000 1.950000
						CHANNELS 3 Zrotation Yrotation Xrotation
						End Site
						{
							OFFSET 0.000000 0.000000 0.000000
						}
					}
				}
			}
		}
	}
	JOINT RHipJoint
	{
		OFFSET 0.000000 0.000000 0.000000
		CHANNELS 3 Zrotation Yrotation Xrotation
		JOINT RightUpLeg
		{
			OFFSET -1.800000 -1.400000 0.085000
			CHANNELS 3 Zrotation Yrotation Xrotation
			JOINT RightLeg
			{
				OFFSET -2.215000 -6.000000 0.000000
				CHANNELS 3 Zrotation Yrotation Xrotation
				JOINT RightFoot
				{
					OFFSET -2.500000 -6.900000 0.000000
					CHANNELS 3 Zrotation Yrotation Xrotation
					JOINT RightToeBase
					{
						OFFSET -0.200000 -0.500000 1.950000
						CHANNELS 3 Zrotation Yrotation Xrotation
						End Site
						{
							OFFSET 0.000000 0.000000 0.000000
						}
					}
				}
			}
		}
	}
	JOINT LowerBack
	{
		OFFSET 0.000000 0.000000 0.000000
		CHANNELS 3 Zrotation Yrotation Xrotation
		JOINT Spine
		{
			OFFSET -0.087000 1.940000 -0.288900
			CHANNELS 3 Zrotation Yrotation Xrotation
			JOINT Spine1
			{
				OFFSET 0.000000 1.950000 0.060000
				CHANNELS 3 Zrotation Yrotation Xrotation
				JOINT Neck
				{
					OFFSET 0.000000 0.000000 0.000000
					CHANNELS 3 Zrotation Yrotation Xrotation
					JOINT Neck1
					{
						OFFSET 0.000000 1.600000 0.340000
						CHANNELS 3 Zrotation Yrotation Xrotation
						JOINT Head
						{
							OFFSET 0.000000 1.667000 -0.240000
							CHANNELS 3 Zrotation Yrotation Xrotation
							End Site
							{
								OFFSET 0.000000 0.000000 0.000000
							}
						}
					}
				}
				JOINT LeftShoulder
				{
					OFFSET 0.000000 0.000000 0.000000
					CHANNELS 3 Zrotation Yrotation Xrotation
					JOINT LeftArm
					{
						OFFSET 2.700000 1.550000 -0.730000
						CHANNELS 3 Zrotation Yrotation Xrotation
						JOINT LeftForeArm
						{
							OFFSET 5.450000 0.000000 0.000000
							CHANNELS 3 Zrotation Yrotation Xrotation
							JOINT LeftHand
							{
								OFFSET 3.450000 0.000000 0.000000
								CHANNELS 3 Zrotation Yrotation Xrotation
								JOINT LeftHandIndex1
								{
									OFFSET 0.750000 0.000000 0.000000
									CHANNELS 3 Zrotation Yrotation Xrotation
									End Site
									{
										OFFSET 0.000000 0.000000 0.000000
									}
								}
							}
						}
					}
				}
				JOINT RightShoulder
				{
					OFFSET 0.000000 0.000000 0.000000
					CHANNELS 3 Zrotation Yrotation Xrotation
					JOINT RightArm
					{
						OFFSET -2.700000 1.550000 -0.730000
						CHANNELS 3 Zrotation Yrotation Xrotation
						JOINT RightForeArm
						{
							OFFSET -5.450000 0.000000 0.000000
							CHANNELS 3 Zrotation Yrotation Xrotation
							JOINT RightHand
							{
								OFFSET -3.450000 0.000000 0.000000
								CHANNELS 3 Zrotation Yrotation Xrotation
								JOINT RightHandIndex1
								{
									OFFSET -0.750000 0.000000 0.000000
									CHANNELS 3 Zrotation Yrotation Xrotation
									End Site
									{
										OFFSET 0.000000 0.000000 0.000000
									}
								}
							}
						}
					}
				}
			}
		}
	}
}
MOTION
Frames: 14
Frame Time: 0.016667
-1.088960 15.896770 -2.722550 -9.020494 0.351085 -3.903752 -15.599179 13.546043 3.383396 11.335979 -4.356312 -33.044738 14.280009 3.632153 50.242601 0.440516 7.903910 1.500696 0.354860 0.307100 0.370710 17.933374 -8.833587 4.073981 -24.316141 6.122783 -31.865681 24.130961 -18.623969 41.015796 -1.125819 -8.337999 1.238044 0.157360 -0.252500 0.058660 -2.517826 -4.867960 -9.029771 10.433072 -3.155932 23.379846 13.359131 -2.143846 2.874040 0.343504 -8.586785 -14.010081 -21.546568 9.603529 45.285862 -6.971470 4.168180 -10.246910 -24.432773 -18.476055 8.147081 -50.553324 -4.888084 -3.201134 -28.396650 -21.403246 2.407050 -3.452056 3.094028 0.349490 -0.188040 0.269110 -0.000160 25.785628 26.972263 6.972305 22.734056 14.209867 -12.790034 -26.265475 33.795175 -7.655811 2.358443 -1.280055 0.019470 0.073890 -0.111500 -0.136890 
-1.057290 15.775070 -2.764020 -9.944899 1.321540 -4.761556 -15.671465 13.266960 3.449810 12.420193 -4.628854 -34.459645 14.119106 4.219379 53.523437 0.518938 8.540709 1.270641 0.386960 0.343310 0.406650 17.962823 -8.290002 4.435644 -26.578225 6.357946 -33.689124 29.704471 -21.773628 41.477167 -1.391084 -9.177842 0.972702 0.186850 -0.283310 0.066490 -2.458588 -5.176287 -9.262551 10.886512 -3.683588 25.487604 12.962824 -2.422705 3.485697 0.805356 -8.716417 -14.322258 -21.686042 9.736391 44.700210 -7.963080 3.980080 -11.847890 -24.044554 -20.271220 8.767465 -47.278399 -5.590060 -3.789493 -33.826832 -27.743811 4.738386 -3.415050 3.147009 0.366620 -0.199240 0.290200 -0.012260 24.438386 28.983340 6.674214 19.487840 15.217729 -13.885097 -29.992348 39.230214 -9.778130 2.257078 -1.229813 0.023300 0.078090 -0.114840 -0.152630 
-1.034240 15.646100 -2.812130 -10.743502 2.167299 -5.610509 -15.741712 13.033898 3.528193 13.798446 -4.714980 -35.989787 14.747913 4.434804 56.433112 0.591701 9.115820 1.070658 0.404620 0.361200 0.433120 17.983273 -7.830789 4.713628 -28.515782 6.479623 -35.375465 34.205768 -24.337058 41.710379 -1.597450 -9.789056 0.792860 0.207930 -0.300070 0.070920 -2.383560 -5.434967 -9.464033 11.016761 -4.023401 27.876046 11.976483 -2.287371 3.525968 1.436652 -8.507087 -14.287184 -20.876099 9.585588 43.814690 -8.547220 3.879490 -13.260990 -24.289407 -21.587522 9.088659 -43.051644 -5.766670 -4.210331 -39.938696 -32.261757 7.468057 -3.398539 3.194465 0.383890 -0.202460 0.301130 -0.024780 23.303385 30.414958 6.209363 15.931246 15.666626 -14.819067 -34.093606 44.300261 -12.254452 2.154417 -1.156502 0.016550 0.086430 -0.111910 -0.169930 
-1.022590 15.517930 -2.863580 -11.089545 2.720977 -6.454291 -15.817319 12.770349 3.697034 15.191235 -4.825458 -37.889240 14.812617 5.163709 60.198204 0.715544 9.833779 0.832296 0.419840 0.377760 0.455290 17.992815 -7.420615 4.899886 -30.099852 6.614790 -36.556409 38.460164 -26.211465 41.097357 -1.751424 -10.149952 0.695116 0.220460 -0.319180 0.073270 -2.283753 -5.622721 -9.665759 10.475088 -4.028564 30.572977 10.569134 -1.713357 3.191793 2.181540 -8.166717 -14.315745 -19.852315 9.372194 43.129129 -8.768830 3.758180 -14.526720 -24.679472 -22.687156 9.270486 -38.690814 -5.505572 -4.587909 -46.262637 -35.009366 10.215650 -3.375733 3.241719 0.401680 -0.212560 0.316770 -0.033250 22.092747 31.703477 5.899992 12.370815 15.695794 -15.664467 -39.165359 47.876904 -15.150253 2.074374 -1.075955 0.015290 0.091130 -0.113980 -0.181940 
-1.025990 15.391050 -2.906240 -11.157713 2.959030 -7.420834 -15.890139 12.534616 3.871765 16.857246 -4.749811 -39.478184 14.267936 6.408877 63.928267 0.850019 10.547078 0.598096 0.440580 0.407770 0.469150 17.994809 -7.083793 4.993884 -31.028623 6.790919 -37.274424 42.004539 -27.640550 40.476923 -1.876921 -10.385909 0.635470 0.236900 -0.338860 0.072720 -2.178421 -5.776165 -9.814057 9.433087 -3.714070 33.152500 9.561645 -0.931918 3.057413 2.671520 -8.119075 -14.354988 -19.675469 9.347893 42.380455 -8.618850 3.465230 -15.919130 -23.961664 -23.222865 9.246724 -35.084503 -5.830249 -4.736018 -53.290665 -38.448673 14.069581 -3.351663 3.292116 0.417800 -0.230000 0.336140 -0.035760 20.336380 32.590746 5.743454 8.729466 15.245040 -16.371325 -44.572666 50.167128 -18.143249 2.007407 -0.995503 0.020720 0.098160 -0.118900 -0.184960 
-1.034580 15.274670 -2.951360 -10.819707 3.058127 -8.446171 -15.944407 12.300315 4.055279 18.288283 -4.758685 -40.741200 13.119281 8.120827 67.647599 0.993260 11.268881 0.370849 0.471320 0.451460 0.479960 18.005386 -6.826605 5.017909 -31.672141 6.901144 -37.588523 44.737080 -28.636662 39.908210 -1.972210 -10.531880 0.599813 0.262360 -0.350310 0.072770 -2.114067 -5.854430 -9.909060 7.948704 -3.351610 35.783931 8.396611 -0.203987 2.824185 2.940901 -8.214485 -14.134614 -19.795001 9.552913 41.308632 -7.902390 3.234340 -17.470670 -23.002596 -23.204277 8.957181 -31.185266 -6.340711 -4.622695 -60.981437 -41.319849 18.645787 -3.333579 3.347868 0.432230 -0.246970 0.354220 -0.029930 18.748606 32.876811 5.501263 4.797674 14.747037 -16.723580 -48.644365 51.218462 -20.219257 1.957218 -0.936766 0.027660 0.110530 -0.127090 -0.182270 
-1.052670 15.175210 -2.993030 -10.234707 3.148007 -9.679191 -15.981942 12.118214 4.228460 19.458795 -4.814289 -41.463816 11.487137 10.191790 70.973672 1.132447 11.963636 0.160030 0.498130 0.490640 0.487420 18.009211 -6.677432 4.958416 -31.747680 7.053064 -37.084742 46.625057 -29.190014 39.397747 -2.038370 -10.596873 0.582924 0.287800 -0.355230 0.073160 -2.067959 -5.887482 -9.951673 6.073954 -2.900658 38.279994 7.337755 0.423469 2.764695 3.078742 -8.389219 -13.874279 -20.216948 9.983324 40.542091 -7.237160 3.170230 -18.875400 -21.764093 -22.961679 8.561371 -27.445410 -7.071805 -4.371262 -68.651031 -43.513291 23.489540 -3.323915 3.391193 0.449060 -0.260940 0.371670 -0.022760 17.140006 32.882788 5.308186 0.914401 14.077869 -16.933224 -50.753748 51.744104 -21.148824 1.921521 -0.899062 0.029450 0.128900 -0.131530 -0.179160 
-1.073740 15.094180 -3.032410 -9.597421 3.428408 -10.810875 -15.974235 11.987396 4.314586 19.950926 -4.948558 -41.800497 10.800075 11.207612 72.955331 1.218740 12.349279 0.045995 0.525810 0.532640 0.497900 18.036929 -6.656159 4.897875 -31.775653 7.135261 -36.469919 47.348879 -29.610737 39.519849 -2.089262 -10.674870 0.559685 0.311590 -0.363620 0.075060 -2.118796 -5.769665 -9.936924 4.438329 -2.701203 40.521586 5.732822 0.762451 2.728673 3.253431 -8.546782 -13.556982 -20.474617 10.352113 39.566319 -6.909790 3.361770 -20.200080 -20.694021 -22.517337 8.098629 -23.888508 -7.560118 -4.243096 -75.272684 -45.394431 28.223348 -3.313568 3.437277 0.458610 -0.271860 0.389090 -0.014910 15.560401 32.512485 5.161465 -2.264624 13.293823 -16.979098 -51.492793 51.837590 -21.275106 1.899974 -0.891136 0.036340 0.139960 -0.141090 -0.175870 
-1.106810 15.035000 -3.062130 -9.137253 3.823534 -11.896155 -15.949593 11.924679 4.324414 20.477166 -4.916218 -41.666217 10.641081 11.550908 73.774819 1.237456 12.499438 -0.005809 0.547500 0.566590 0.512880 18.066875 -6.703981 4.839350 -31.766279 7.208952 -35.737919 47.328753 -30.204522 40.345080 -2.144603 -10.815297 0.516450 0.333610 -0.370690 0.076790 -2.196022 -5.619922 -9.892349 2.933720 -2.587657 42.444236 4.164821 0.890446 2.642870 3.374803 -8.600585 -13.157921 -20.517820 10.952439 38.793753 -6.870800 4.026760 -21.480440 -19.895075 -22.035489 7.504455 -20.504814 -8.253372 -4.103013 -80.143682 -46.318703 31.773308 -3.309477 3.467074 0.471990 -0.277440 0.405330 -0.013760 14.344934 31.868068 5.007887 -4.816220 12.340095 -16.878096 -50.199286 52.369167 -20.503901 1.880712 -0.888819 0.036100 0.153310 -0.145110 -0.180060 
-1.140480 14.997610 -3.084600 -8.905727 4.523117 -12.837529 -15.905006 11.893107 4.281048 20.881869 -4.837598 -41.401245 11.185781 11.076893 73.784674 1.201587 12.449767 -0.004698 0.563910 0.592550 0.529450 18.110512 -6.800451 4.797771 -31.912701 7.195051 -35.225577 46.354257 -30.925738 41.947857 -2.199677 -11.020566 0.450025 0.353080 -0.380100 0.081080 -2.318175 -5.417460 -9.830749 2.006247 -2.777776 44.039658 2.414250 0.777333 2.522978 3.543204 -8.733659 -12.752466 -20.818797 11.658362 38.069673 -7.359720 4.811900 -22.640730 -19.149919 -21.516288 6.754009 -17.782688 -9.393575 -3.982284 -83.410004 -46.509263 34.005051 -3.308293 3.485865 0.486340 -0.279370 0.420830 -0.017760 13.082038 31.057809 4.911324 -6.853768 11.026708 -16.652225 -47.441840 53.339009 -19.142705 1.859884 -0.897179 0.033200 0.163640 -0.144700 -0.188960 
-1.178910 14.982220 -3.102370 -8.568209 5.379682 -13.513924 -15.849110 11.815527 4.245973 21.050789 -4.848118 -41.124692 11.071405 11.024367 73.494207 1.166602 12.403547 -0.002216 0.573030 0.604890 0.542230 18.164519 -6.908357 4.783833 -32.239359 7.130784 -34.814777 45.855678 -31.570032 43.097657 -2.244662 -11.185650 0.395624 0.364710 -0.385650 0.082920 -2.468284 -5.126217 -9.786386 1.202725 -2.951271 45.235010 0.549957 0.605821 2.560362 3.707232 -8.795742 -12.531733 -21.052191 12.150228 37.645638 -7.517240 5.376100 -23.396690 -18.175560 -21.117348 6.073163 -15.853668 -10.461240 -4.011486 -85.036662 -46.856960 35.416400 -3.304512 3.493427 0.500060 -0.282220 0.430580 -0.023390 11.631009 30.264787 5.038017 -8.035202 9.229424 -16.314087 -43.603963 54.553556 -17.391882 1.845651 -0.925215 0.027750 0.171960 -0.141940 -0.197380 
-1.218230 14.993910 -3.113540 -8.182858 6.214043 -13.864372 -15.790974 11.735271 4.221445 21.240126 -4.799294 -40.780043 10.323635 11.365727 72.695389 1.110458 12.325629 0.001447 0.585890 0.621930 0.559000 18.217969 -7.035080 4.749864 -32.508263 7.033071 -34.256602 45.230918 -31.763128 43.757523 -2.260962 -11.253828 0.362353 0.380290 -0.395990 0.086190 -2.622600 -4.814651 -9.735056 0.524125 -3.241972 45.884829 -1.264401 0.239586 2.771633 3.821322 -9.085253 -12.283373 -21.819211 12.914279 37.164024 -8.092840 5.930940 -24.256350 -17.362136 -20.551449 5.511943 -15.099580 -11.262614 -4.121138 -84.909307 -47.238912 35.742665 -3.306271 3.488856 0.513180 -0.285300 0.441830 -0.031730 10.446043 29.468867 4.960442 -8.501084 8.310662 -15.953078 -39.630888 56.004069 -15.758798 1.831228 -0.952914 0.024230 0.179480 -0.138330 -0.207150 
-1.267110 15.031650 -3.123390 -7.841456 6.907695 -13.916344 -15.738602 11.690660 4.189700 21.324540 -4.687117 -40.392671 9.521134 11.609841 71.313329 1.038084 12.161365 0.033496 0.581820 0.619590 0.567200 18.258011 -7.177198 4.705084 -32.245446 7.081955 -33.782577 44.339485 -31.416800 44.072684 -2.239318 -11.237443 0.354970 0.385350 -0.395730 0.088000 -2.753178 -4.520385 -9.680714 -0.269989 -3.448335 46.039281 -2.924143 -0.107300 3.121301 3.970970 -9.195016 -12.145594 -22.193859 13.649886 37.042556 -8.829560 6.682930 -24.291120 -16.723707 -20.273672 5.076059 -14.541930 -11.921540 -4.250938 -83.457121 -46.937578 34.691121 -3.316149 3.480000 0.512420 -0.274670 0.439330 -0.043700 9.392906 28.896404 4.931825 -8.784573 7.953716 -15.412566 -34.452268 56.728216 -13.330667 1.839405 -1.012508 0.017160 0.181030 -0.129450 -0.216850 
-1.317840 15.095290 -3.133260 -7.433926 7.640298 -13.745088 -15.667590 11.681828 4.118493 20.988542 -4.664420 -39.804397 8.849512 11.463574 69.230380 0.930505 11.844583 0.111868 0.577310 0.612540 0.572000 18.303236 -7.374907 4.658962 -31.805908 7.110293 -33.189800 43.464712 -30.593969 43.773663 -2.188749 -11.105065 0.380020 0.387090 -0.396120 0.087260 -2.921697 -4.180145 -9.601670 -0.879341 -3.878999 46.150600 -4.870064 -0.650456 3.249099 4.167939 -9.408603 -12.152362 -22.909752 14.466985 36.920817 -9.378800 7.274710 -24.381860 -16.176654 -20.141726 4.759379 -14.184550 -12.322358 -4.413392 -81.022359 -46.166981 32.692425 -3.311445 3.464557 0.519340 -0.270250 0.437510 -0.053040 8.385890 28.471861 4.918792 -9.048117 7.747829 -14.763510 -27.638330 57.774552 -10.208501 1.857919 -1.090138 0.007700 0.184730 -0.120330 -0.226430 
